HIERARCHY
ROOT RootJoint
{
    OFFSET   0.000000   0.000000   0.000000
    CHANNELS 6 Xposition Yposition Zposition Xrotation Yrotation Zrotation
    JOINT pelvis_lowerback
    {
        OFFSET   0.000000   0.093605   0.000000
        CHANNELS 3 Xrotation Yrotation Zrotation
        JOINT lowerback_torso
        {
            OFFSET   0.000000   0.100000   0.000000
            CHANNELS 3 Xrotation Yrotation Zrotation
            JOINT torso_head
            {
                OFFSET   0.000000   0.282350   0.000000
                CHANNELS 3 Xrotation Yrotation Zrotation
                End Site
                {
                    OFFSET   0.000000   0.192650   0.000000
                }
            }
            JOINT rTorso_Clavicle
            {
                OFFSET  -0.001000   0.157500   0.000000
                CHANNELS 3 Xrotation Yrotation Zrotation
                JOINT rShoulder
                {
                    OFFSET  -0.117647   0.000000   0.000000
                    CHANNELS 3 Xrotation Yrotation Zrotation
                    JOINT rElbow
                    {
                        OFFSET  -0.245000   0.000000   0.000000
                        CHANNELS 3 Xrotation Yrotation Zrotation
                        JOINT rWrist
                        {
                            OFFSET  -0.240000   0.000000   0.000000
                            CHANNELS 3 Xrotation Yrotation Zrotation
                            End Site
                            {
                                OFFSET  -0.116353  -0.002500   0.000000
                            }
                        }
                    }
                }
            }
            JOINT lTorso_Clavicle
            {
                OFFSET   0.001000   0.157500   0.000000
                CHANNELS 3 Xrotation Yrotation Zrotation
                JOINT lShoulder
                {
                    OFFSET   0.117647   0.000000   0.000000
                    CHANNELS 3 Xrotation Yrotation Zrotation
                    JOINT lElbow
                    {
                        OFFSET   0.245000   0.000000   0.000000
                        CHANNELS 3 Xrotation Yrotation Zrotation
                        JOINT lWrist
                        {
                            OFFSET   0.240000   0.000000   0.000000
                            CHANNELS 3 Xrotation Yrotation Zrotation
                            End Site
                            {
                                OFFSET   0.116353  -0.002500   0.000000
                            }
                        }
                    }
                }
            }
        }
    }
    JOINT rHip
    {
        OFFSET  -0.100000  -0.051395   0.000000
        CHANNELS 3 Xrotation Yrotation Zrotation
        JOINT rKnee
        {
            OFFSET   0.000000  -0.410000   0.000000
            CHANNELS 3 Xrotation Yrotation Zrotation
            JOINT rAnkle
            {
                OFFSET   0.000000  -0.390000   0.000000
                CHANNELS 3 Xrotation Yrotation Zrotation
                JOINT rToeJoint
                {
                    OFFSET   0.000000  -0.050000   0.130000
                    CHANNELS 3 Xrotation Yrotation Zrotation
                    End Site
                    {
                        OFFSET  -0.010000   0.002000   0.060000
                    }
                }
            }
        }
    }
    JOINT lHip
    {
        OFFSET   0.100000  -0.051395   0.000000
        CHANNELS 3 Xrotation Yrotation Zrotation
        JOINT lKnee
        {
            OFFSET   0.000000  -0.410000   0.000000
            CHANNELS 3 Xrotation Yrotation Zrotation
            JOINT lAnkle
            {
                OFFSET   0.000000  -0.390000   0.000000
                CHANNELS 3 Xrotation Yrotation Zrotation
                JOINT lToeJoint
                {
                    OFFSET   0.000000  -0.050000   0.130000
                    CHANNELS 3 Xrotation Yrotation Zrotation
                    End Site
                    {
                        OFFSET   0.010000   0.002000   0.060000
                    }
                }
            }
        }
    }
}
MOTION
Frames: 5
Frame Time:   0.008333
 -2.366678   0.928785   4.101016 -27.357201  -7.939738 -29.714716  31.091888  -4.198619   4.068957  11.295310  -6.126004   4.475475   3.708022  -1.477353   2.565275   3.944529  -2.412530  -0.007248  22.708121   8.366769  45.271770   0.002501  26.679637   0.000331   3.703470   3.137276   3.274014   0.705886  -8.641443  -5.257626  -3.617900 -15.537664 -35.460227  -0.048948 -44.555371  -0.031523  -1.174313  -4.736653   6.483090 -48.509167 -14.041651 -12.547390  88.339425  -0.012568   0.024533   7.615477  -2.020099  19.576931   5.663773   0.000009  -0.000113  25.048635   2.244991  19.190094  21.728419  -0.006222   0.007793 -17.483215  -6.035890   3.838597  -0.862548   0.000019  -0.000006
 -2.365356   0.930009   4.102917 -26.572270  -8.702857 -28.855027  30.373074  -4.395437   3.774570  11.113451  -6.048748   4.365999   3.630099  -1.497083   2.625302   3.869160  -2.474611  -0.121889  22.324134   8.314089  45.297257   0.002749  27.365368   0.001030   3.755636   3.047685   3.128186   0.815554  -8.494299  -5.132708  -2.843221 -15.640166 -36.259572  -0.045573 -44.077851  -0.030366  -1.062028  -4.504032   6.203735 -47.295752 -14.052179 -11.477264  87.930457  -0.009269   0.016675   7.487961  -2.092531  19.369664   5.678991   0.000021  -0.000080  24.510636   2.190586  18.140559  20.761375  -0.006462   0.008067 -16.517990  -5.728222   3.870183  -1.525910  -0.001329  -0.000649
 -2.364101   0.931531   4.104840 -25.724059  -9.437760 -27.980966  29.624447  -4.606092   3.500227  10.896457  -5.988657   4.260845   3.557531  -1.516858   2.677861   3.792555  -2.538677  -0.245446  21.958819   8.271478  45.326389   0.002883  28.022923   0.001634   3.794800   3.073080   2.986036   0.934101  -8.349931  -4.990889  -2.108776 -15.751244 -37.015086  -0.041839 -43.641415  -0.028754  -0.945161  -4.300508   5.814449 -46.102944 -14.040556 -10.436910  87.292766  -0.006082   0.008795   7.355614  -2.163724  19.174702   5.650610  -0.000008  -0.000105  23.940739   2.095090  17.109425  19.760244  -0.006736   0.008406 -15.430686  -5.508358   4.169109  -2.334803  -0.000883  -0.000542
 -2.362955   0.933097   4.106822 -24.844342 -10.118278 -27.112136  28.882609  -4.815999   3.261878  10.655195  -5.941153   4.169306   3.484915  -1.536324   2.726962   3.723011  -2.603065  -0.384344  21.621385   8.227295  45.345420   0.002878  28.639236   0.001994   3.829568   3.134348   2.845415   1.041367  -8.214082  -4.840992  -1.426680 -15.867252 -37.716141  -0.037850 -43.240204  -0.026768  -0.827984  -4.133825   5.412153 -44.969020 -14.014721  -9.451603  86.626747  -0.003394   0.002398   7.228457  -2.230015  18.992485   5.616049  -0.000034  -0.000144  23.363489   1.986686  16.131398  18.758440  -0.006936   0.008421 -14.296657  -5.305329   4.451921  -3.215979  -0.000548  -0.000451
 -2.361924   0.934596   4.108854 -23.950940 -10.719285 -26.252749  28.169603  -5.026382   3.060507  10.405652  -5.906696   4.097585   3.413572  -1.555099   2.774529   3.660530  -2.666411  -0.534315  21.310725   8.180054  45.352612   0.002794  29.213666   0.002084   3.862507   3.197031   2.698655   1.130796  -8.090950  -4.683343  -0.798466 -15.987327 -38.360660  -0.033801 -42.871077  -0.024574  -0.711708  -4.001610   5.035103 -43.896925 -13.976467  -8.533480  85.993814  -0.001324  -0.002411   7.108771  -2.291300  18.822328   5.582623  -0.000055  -0.000179  22.784201   1.906654  15.209316  17.781365  -0.007207   0.007683 -13.175175  -5.084873   4.720831  -4.120021  -0.000288  -0.001117
